<svg viewBox="0 0 48 48" fill="none" xmlns="http://www.w3.org/2000/svg">
  <!-- Building Base -->
  <rect
    x="8"
    y="20"
    width="32"
    height="24"
    rx="2"
    fill="#2563eb"
    fill-opacity="0.1"
    stroke="#2563eb"
    stroke-width="2"
  />
  
  <!-- Building Windows -->
  <rect x="12" y="24" width="4" height="4" rx="1" fill="#2563eb" fill-opacity="0.3" />
  <rect x="18" y="24" width="4" height="4" rx="1" fill="#2563eb" fill-opacity="0.3" />
  <rect x="26" y="24" width="4" height="4" rx="1" fill="#2563eb" fill-opacity="0.3" />
  <rect x="32" y="24" width="4" height="4" rx="1" fill="#2563eb" fill-opacity="0.3" />
  
  <rect x="12" y="30" width="4" height="4" rx="1" fill="#2563eb" fill-opacity="0.3" />
  <rect x="18" y="30" width="4" height="4" rx="1" fill="#2563eb" fill-opacity="0.3" />
  <rect x="26" y="30" width="4" height="4" rx="1" fill="#2563eb" fill-opacity="0.3" />
  <rect x="32" y="30" width="4" height="4" rx="1" fill="#2563eb" fill-opacity="0.3" />
  
  <!-- Main Entrance -->
  <rect
    x="20"
    y="32"
    width="8"
    height="12"
    rx="1"
    fill="#2563eb"
    fill-opacity="0.2"
  />
  
  <!-- Graduation Cap -->
  <ellipse
    cx="24"
    cy="12"
    rx="12"
    ry="3"
    fill="#2563eb"
    fill-opacity="0.9"
  />
  
  <!-- Cap Top -->
  <rect
    x="20"
    y="10"
    width="8"
    height="4"
    rx="1"
    fill="#2563eb"
  />
  
  <!-- Tassel -->
  <circle cx="32" cy="12" r="1.5" fill="#2563eb" fill-opacity="0.7" />
  <line x1="32" y1="13.5" x2="34" y2="16" stroke="#2563eb" stroke-width="1.5" stroke-linecap="round" />
  
  <!-- Building Pillars -->
  <rect x="10" y="36" width="2" height="8" fill="#2563eb" fill-opacity="0.4" />
  <rect x="14" y="36" width="2" height="8" fill="#2563eb" fill-opacity="0.4" />
  <rect x="32" y="36" width="2" height="8" fill="#2563eb" fill-opacity="0.4" />
  <rect x="36" y="36" width="2" height="8" fill="#2563eb" fill-opacity="0.4" />
</svg>